<svg xmlns="http://www.w3.org/2000/svg" viewBox="0 0 100 100" role="img" aria-label="Table Knight logo">
  <title>Table Knight</title>

  <g transform="translate(0 0)">
    <g transform="translate(11 19) rotate(-40)">
      <circle cx="0" cy="0" r="3.4" fill="#e8a96b" stroke="#27101f" stroke-width=".6"/>
      <rect x="-2.6" y="3.2" width="5.2" height="11.4" rx=".8" fill="#27101f"/>
      <line x1="-2.2" y1="6" x2="2.2" y2="6" stroke="#e8a96b" stroke-width=".5" opacity=".7"/>
      <line x1="-2.2" y1="10" x2="2.2" y2="10" stroke="#e8a96b" stroke-width=".5" opacity=".7"/>
      <rect x="-12" y="14.6" width="24" height="3.4" rx="1" fill="#e8a96b" stroke="#27101f" stroke-width=".5"/>
      <circle cx="-12" cy="16.3" r="1.7" fill="#e8a96b" stroke="#27101f" stroke-width=".5"/>
      <circle cx="12" cy="16.3" r="1.7" fill="#e8a96b" stroke="#27101f" stroke-width=".5"/>
      <path d="M -2.6 18 L 0 95 L 2.6 18 Z" fill="#cccfd6" stroke="#27101f" stroke-width=".7" stroke-linejoin="round"/>
      <line x1="0" y1="18" x2="0" y2="92" stroke="#27101f" stroke-width=".5" opacity=".35"/>
    </g>
    <g transform="translate(89 19) rotate(40)">
      <circle cx="0" cy="0" r="3.4" fill="#e8a96b" stroke="#27101f" stroke-width=".6"/>
      <rect x="-2.6" y="3.2" width="5.2" height="11.4" rx=".8" fill="#27101f"/>
      <line x1="-2.2" y1="6" x2="2.2" y2="6" stroke="#e8a96b" stroke-width=".5" opacity=".7"/>
      <line x1="-2.2" y1="10" x2="2.2" y2="10" stroke="#e8a96b" stroke-width=".5" opacity=".7"/>
      <rect x="-12" y="14.6" width="24" height="3.4" rx="1" fill="#e8a96b" stroke="#27101f" stroke-width=".5"/>
      <circle cx="-12" cy="16.3" r="1.7" fill="#e8a96b" stroke="#27101f" stroke-width=".5"/>
      <circle cx="12" cy="16.3" r="1.7" fill="#e8a96b" stroke="#27101f" stroke-width=".5"/>
      <path d="M -2.6 18 L 0 95 L 2.6 18 Z" fill="#cccfd6" stroke="#27101f" stroke-width=".7" stroke-linejoin="round"/>
      <line x1="0" y1="18" x2="0" y2="92" stroke="#27101f" stroke-width=".5" opacity=".35"/>
    </g>
    <path d="M 22 24 L 78 24 C 78 56, 72 78, 50 95 C 28 78, 22 56, 22 24 Z" fill="#5e2750" stroke="#e8a96b" stroke-width="2.4"/>
    <path d="M 26 28 L 74 28 C 74 54, 68 74, 50 89 C 32 74, 26 54, 26 28 Z" fill="none" stroke="#e8a96b" stroke-width=".8" opacity=".55"/>
    <rect x="34" y="40" width="32" height="32" rx="4.5" fill="#fbeed4" stroke="#27101f" stroke-width="1.3"/>
    <circle cx="42" cy="48" r="2.4" fill="#5e2750"/>
    <circle cx="58" cy="48" r="2.4" fill="#5e2750"/>
    <circle cx="50" cy="56" r="2.4" fill="#5e2750"/>
    <circle cx="42" cy="64" r="2.4" fill="#5e2750"/>
    <circle cx="58" cy="64" r="2.4" fill="#5e2750"/>
    <path d="M 50 2 C 47 2, 45 4, 45 7 C 45 10, 47 12, 50 12 C 53 12, 55 10, 55 7 C 55 4, 53 2, 50 2 Z" fill="#5e2750" stroke="#27101f" stroke-width=".7"/>
    <path d="M 49 10 L 51 10 L 50 16 Z" fill="#5e2750"/>
    <path d="M 41 16 C 41 13, 44 12, 50 12 C 56 12, 59 13, 59 16 L 59 28 C 59 31, 56 33, 50 33 C 44 33, 41 31, 41 28 Z" fill="#e8a96b" stroke="#27101f" stroke-width="1.1"/>
    <rect x="44" y="20" width="12" height="2.2" rx=".5" fill="#27101f"/>
    <path d="M 41 28 L 59 28 L 59 30 C 59 32, 56 33, 50 33 C 44 33, 41 32, 41 30 Z" fill="#27101f" opacity=".22"/>
    <circle cx="44" cy="26" r=".7" fill="#27101f"/>
    <circle cx="56" cy="26" r=".7" fill="#27101f"/>
  </g>
</svg>
